<svg width="336" height="371" viewBox="0 0 336 371" fill="none" xmlns="http://www.w3.org/2000/svg">
<path d="M43.1352 246.56C51.2076 241.717 58.0693 235.663 63.9218 228.801C65.1327 227.388 66.5454 225.774 67.7562 224.159C65.5363 219.316 63.3163 214.674 61.0964 209.831C50.804 187.632 40.5118 165.432 30.2195 143.233C25.376 132.941 20.7342 122.649 15.8907 112.356C-2.07046 152.92 -1.86855 191.062 2.36948 207.006C6.40569 222.141 15.4871 238.892 27.7976 252.413C29.8157 252.009 30.8249 251.808 32.2376 251.404C36.072 250.193 40.3098 248.175 43.1352 246.56Z" fill="white"/>
<path d="M103.478 19.522C93.9933 24.5672 85.719 30.0161 78.4538 35.2632C53.4292 53.628 36.0735 74.8182 23.9648 96.0083V96.2101C26.3866 101.255 28.6065 106.502 31.0282 111.548C41.3206 133.747 51.613 155.946 61.9054 178.145C66.7489 188.639 71.5922 199.134 76.4357 209.628C76.6375 209.022 76.8394 208.619 77.0412 208.013C80.0684 200.546 81.4811 194.492 82.8938 186.42C84.1046 178.347 84.9119 170.275 85.7192 162C87.3337 144.443 89.3517 126.684 95.2042 109.933C99.0386 99.0354 104.487 88.7431 111.349 79.6616C110.744 74.6163 109.936 69.3693 109.331 64.324C107.515 49.39 105.496 34.456 103.478 19.522Z" fill="white"/>
<path d="M296.408 45.7564C223.353 -10.9524 161.195 -5.90715 117.201 12.8613C118.21 20.1265 119.219 27.3916 120.026 34.8586C121.439 45.1509 122.649 55.4434 124.062 65.7357C134.758 56.0488 147.674 48.7835 162.204 45.3528C175.927 42.1238 191.669 41.922 205.19 46.3618C208.823 47.5727 210.437 52.4162 209.024 55.847C207.41 59.6814 203.374 60.8923 199.539 59.6814C199.337 59.6814 199.136 59.4795 198.934 59.4795C198.732 59.4795 198.328 59.2778 198.127 59.2778C195.301 58.6723 192.274 58.2687 189.247 57.8651C187.229 57.6632 185.211 57.4614 183.193 57.4614C182.587 57.4614 181.982 57.4614 181.578 57.4614C183.798 57.4614 181.78 57.4614 181.174 57.4614C179.964 57.4614 178.753 57.4615 177.542 57.6633C175.12 57.8651 172.497 58.0668 170.075 58.4705C168.662 58.6723 167.25 58.8741 165.837 59.2778C165.231 59.4796 164.424 59.6814 163.819 59.6814H163.617C163.617 59.6814 163.415 59.6814 163.213 59.8832C160.388 60.6904 157.361 61.6995 154.536 62.9103C152.921 63.5158 151.508 64.323 149.894 64.9284C149.288 65.3321 148.683 65.5339 147.876 65.9375C147.472 66.1393 147.27 66.3411 146.867 66.5429C143.839 68.3592 141.014 70.1755 138.391 72.1936C136.776 73.4044 135.363 74.6154 133.749 76.028C132.942 76.6335 132.336 77.2389 131.529 78.0461C131.125 78.4498 130.924 78.6516 130.52 79.0552C124.667 85.3113 119.219 92.5765 115.182 99.8417C110.137 109.327 106.706 119.014 104.486 129.104C108.119 129.104 111.55 129.104 115.182 129.104C135.565 128.902 155.948 128.701 176.331 128.499C176.735 127.49 177.34 126.279 177.946 125.27C210.437 56.0488 280.667 82.2842 282.484 82.8897C289.143 85.1096 296.812 83.0914 301.252 77.2389C307.104 69.7719 311.544 57.4614 296.408 45.7564Z" fill="white"/>
<path d="M145.257 143.027C130.928 143.229 116.6 143.229 102.271 143.431C101.868 145.852 101.666 148.274 101.464 150.696C99.6475 167.043 99.244 183.793 95.2077 199.736C92.9878 208.212 89.9606 216.284 85.5207 223.953C80.4755 232.631 73.8159 240.098 66.5507 246.96C59.2855 253.821 50.002 260.077 40.1133 263.912C51.0111 272.186 63.5234 277.635 77.2465 277.837C103.28 278.442 123.26 259.472 130.121 252.005C161.604 218.101 152.118 192.067 170.685 143.027C162.209 142.825 153.733 142.825 145.257 143.027Z" fill="white"/>
<path d="M292.375 124.259C284.302 129.102 277.441 135.157 271.588 142.018C270.377 143.431 268.965 145.045 267.754 146.66C269.974 151.503 272.194 156.145 274.414 160.988C284.706 183.187 294.998 205.387 305.291 227.586C310.134 237.878 314.776 248.171 319.619 258.463C337.58 217.899 337.379 179.757 333.141 163.814C329.104 148.678 320.023 131.928 307.713 118.406C305.694 118.81 304.685 119.012 303.273 119.415C299.438 120.626 295.2 122.644 292.375 124.259Z" fill="white"/>
<path d="M232.031 351.497C241.516 346.452 249.79 341.003 257.055 335.756C282.08 317.391 299.435 296.201 311.544 275.011V274.809C309.122 269.764 306.902 264.517 304.481 259.472C294.188 237.273 283.896 215.073 273.604 192.874C268.76 182.38 263.917 171.886 259.073 161.392C258.871 161.997 258.67 162.401 258.468 163.006C255.441 170.473 254.028 176.527 252.615 184.6C251.405 192.672 250.597 200.745 249.79 209.019C248.176 226.577 246.158 244.336 240.305 261.086C236.471 271.984 231.022 282.276 224.16 291.358C224.766 296.403 225.573 301.65 226.178 306.695C227.995 321.428 230.013 336.563 232.031 351.497Z" fill="white"/>
<path d="M39.1035 325.06C112.159 381.769 174.317 376.723 218.312 357.955C217.303 350.69 216.294 343.424 215.486 335.957C214.074 325.665 212.863 315.373 211.45 305.08C200.754 314.767 187.838 322.032 173.308 325.463C159.585 328.692 143.844 328.894 130.322 324.454C126.69 323.243 125.075 318.4 126.488 314.969C128.102 311.135 132.138 309.924 135.973 311.135C136.175 311.135 136.376 311.336 136.578 311.336C136.78 311.336 137.184 311.538 137.386 311.538C140.211 312.144 143.238 312.547 146.265 312.951C148.283 313.153 150.302 313.355 152.32 313.355C152.925 313.355 153.53 313.355 153.934 313.355C151.714 313.355 153.732 313.355 154.338 313.355C155.549 313.355 156.759 313.355 157.97 313.153C160.392 312.951 163.016 312.749 165.437 312.345C166.85 312.144 168.263 311.942 169.675 311.538C170.281 311.336 171.088 311.135 171.693 311.135H171.895C171.895 311.135 172.097 311.135 172.299 310.933C175.124 310.126 178.151 309.117 180.977 307.906C182.591 307.3 184.004 306.493 185.618 305.888C186.224 305.484 186.829 305.282 187.637 304.879C188.04 304.677 188.242 304.475 188.646 304.273C191.673 302.457 194.498 300.64 197.122 298.622C198.736 297.411 200.149 296.201 201.763 294.788C202.571 294.183 203.176 293.577 203.983 292.77C204.387 292.366 204.589 292.164 204.992 291.761C210.845 285.505 216.294 278.239 220.33 270.974C225.375 261.489 228.806 251.802 231.026 241.712C227.393 241.712 223.962 241.712 220.33 241.712C199.947 241.913 179.564 242.115 159.181 242.317C158.777 243.326 158.172 244.537 157.567 245.546C125.075 314.767 54.8448 288.532 53.0285 287.926C46.3688 285.706 38.7001 287.725 34.2603 293.577C28.4078 301.044 23.9677 313.355 39.1035 325.06Z" fill="white"/>
<path d="M190.26 227.786C204.589 227.584 218.917 227.584 233.246 227.383C233.65 224.961 233.851 222.539 234.053 220.117C235.87 203.771 236.273 187.02 240.309 171.077C242.529 162.601 245.556 154.529 249.996 146.86C255.041 138.182 261.701 130.715 268.966 123.854C276.232 116.992 285.515 110.736 295.404 106.901C284.506 98.6272 271.994 93.1784 258.271 92.9766C232.237 92.3711 212.258 111.341 205.396 118.808C173.913 152.713 183.399 178.746 164.832 227.786C173.308 227.988 181.784 227.988 190.26 227.786Z" fill="white"/>
</svg>
