<svg width="589" height="238" viewBox="0 0 589 238" fill="none" xmlns="http://www.w3.org/2000/svg">
<g clip-path="url(#clip0_996_25177)">
<path d="M323.349 219.756C318.958 221.952 314.567 223.049 310.176 224.147C305.785 224.879 301.394 225.611 296.271 225.611C282.732 225.611 272.121 221.952 264.436 214.268C256.752 206.583 252.727 195.971 252.727 181.701C252.727 168.528 257.118 157.55 265.534 148.768C273.95 139.986 285.294 135.595 298.833 135.595C303.59 135.595 307.614 135.961 311.274 136.692C314.933 137.424 318.592 138.522 322.617 139.986L316.762 155.72C313.835 154.623 310.908 153.891 308.347 153.525C305.785 153.159 302.492 152.793 299.564 152.793C292.612 152.793 286.391 155.354 281.268 160.111C276.146 165.234 273.584 171.821 273.584 180.237C273.584 189.019 275.78 195.971 280.537 200.728C284.928 205.851 291.148 208.047 299.199 208.047C301.394 208.047 303.955 207.681 306.883 206.949C310.176 206.217 313.469 205.119 316.762 203.656L323.349 219.756Z" fill="white"/>
<path d="M350.424 225.611C340.178 225.611 332.127 222.683 325.907 216.829C320.052 210.974 317.125 203.29 317.125 193.41C317.125 183.164 320.418 175.114 326.273 169.259C332.494 163.404 340.544 160.477 351.155 160.477C361.401 160.477 369.451 163.404 375.306 169.259C381.16 175.114 384.088 182.798 384.088 192.312C384.088 202.558 381.161 210.608 374.94 216.463C369.085 222.683 361.035 225.611 350.424 225.611ZM351.155 210.974C355.912 210.974 359.206 209.51 361.401 206.217C363.597 203.29 364.694 198.533 364.694 192.678C364.694 186.823 363.597 182.432 361.401 179.871C359.206 177.31 355.546 175.48 351.155 175.48C346.764 175.48 343.105 176.943 340.543 180.237C337.982 183.53 336.884 187.555 336.884 193.41C336.884 199.264 337.982 203.656 340.543 206.949C342.739 209.51 346.398 210.974 351.155 210.974Z" fill="white"/>
<path d="M422.515 146.937C421.417 146.571 420.319 146.205 419.221 145.839C418.124 145.473 417.392 145.474 415.929 145.474C413.367 145.474 411.537 146.205 410.073 148.035C408.61 149.865 407.878 152.06 407.878 154.987V162.306H422.149V176.211H407.878V224.146H388.85V176.211H378.605V162.306H388.85V153.89C388.85 146.937 391.046 141.448 395.803 137.423C400.56 133.398 406.414 131.203 413.733 131.203C416.66 131.203 418.856 131.203 420.685 131.569C422.515 131.935 424.344 132.3 426.54 133.032L422.515 146.937Z" fill="white"/>
<path d="M457.641 146.937C456.543 146.571 455.446 146.205 454.348 145.839C453.25 145.473 452.518 145.474 451.054 145.474C448.493 145.474 446.664 146.205 445.2 148.035C443.736 149.865 443.004 152.06 443.004 154.987V162.306H457.275V176.211H443.004V224.146H423.976V176.211H413.73V162.306H423.976V153.89C423.976 146.937 426.172 141.448 430.929 137.423C435.686 133.398 441.541 131.203 448.859 131.203C451.786 131.203 453.982 131.203 455.811 131.569C457.641 131.935 459.471 132.3 461.666 133.032L457.641 146.937Z" fill="white"/>
<path d="M509.965 198.535H469.714C470.08 202.926 471.544 206.219 474.105 208.414C476.666 210.61 480.326 211.708 485.083 211.708C486.912 211.708 489.474 211.342 492.401 210.244C495.694 209.146 498.622 207.317 501.549 205.121L509.965 216.099C505.574 219.392 501.549 221.954 496.792 223.417C492.401 224.881 487.278 225.613 482.156 225.613C472.276 225.613 464.591 222.685 458.737 217.196C453.248 211.708 450.32 204.024 450.32 194.144C450.32 184.264 453.248 176.213 459.102 169.993C464.957 163.772 472.275 160.845 481.423 160.845C489.84 160.845 496.792 163.407 501.915 168.529C507.038 173.652 509.599 181.336 509.599 191.216V198.535H509.965ZM492.401 186.825C492.401 182.068 491.669 178.775 489.84 176.579C488.01 174.384 485.449 173.652 481.79 173.652C478.862 173.652 475.935 174.75 473.739 177.311C471.544 179.507 470.08 182.8 469.714 187.191H492.401V186.825Z" fill="white"/>
<path d="M564.489 198.535H524.238C524.604 202.926 526.067 206.219 528.628 208.414C531.19 210.61 534.849 211.708 539.606 211.708C541.436 211.708 543.997 211.342 546.924 210.244C550.218 209.146 553.145 207.317 556.072 205.121L564.489 216.099C560.098 219.392 556.073 221.954 551.316 223.417C546.925 224.881 541.802 225.613 536.679 225.613C526.799 225.613 519.115 222.685 513.26 217.196C507.771 211.708 504.844 204.024 504.844 194.144C504.844 184.264 507.771 176.213 513.626 169.993C519.481 163.772 526.799 160.845 535.947 160.845C544.363 160.845 551.315 163.407 556.438 168.529C561.561 173.652 564.123 181.336 564.123 191.216V198.535H564.489ZM546.924 186.825C546.924 182.068 546.193 178.775 544.363 176.579C542.534 174.384 539.972 173.652 536.313 173.652C533.385 173.652 530.458 174.75 528.263 177.311C526.067 179.507 524.604 182.8 524.238 187.191H546.924V186.825Z" fill="white"/>
<path d="M327.374 114.993H307.98V79.8652H272.12V114.993H252.727V28.2705H272.12V62.6668H307.98V28.2705H327.374V114.993Z" fill="white"/>
<path d="M384.453 114.99H366.523V106.208H366.157C363.962 109.501 361.4 112.429 358.473 113.892C355.546 115.722 351.886 116.454 347.861 116.454C342.372 116.454 337.981 114.99 333.956 111.697C329.931 108.404 328.102 103.647 328.102 97.7917C328.102 91.937 329.931 87.5458 333.956 83.8866C337.615 80.2274 343.836 78.0318 351.886 76.934L366.523 75.1044V74.0069C366.523 71.0796 365.425 68.8839 363.596 67.4202C361.766 65.9566 359.205 65.2248 355.911 65.2248C353.35 65.2248 350.423 65.5905 347.495 66.3223C344.202 67.0541 341.274 68.5182 337.981 70.3478L331.395 59.0039C335.786 56.4425 339.811 54.6129 343.836 53.5151C347.861 52.4174 352.618 51.6855 357.375 51.6855C366.523 51.6855 373.475 53.8812 377.866 58.2723C382.257 62.6633 384.453 69.2499 384.453 78.032V114.99ZM366.523 89.7412V85.7162L355.18 87.1799C352.252 87.5459 349.691 88.6433 348.227 90.107C346.763 91.5707 346.032 93.4003 346.032 95.5958C346.032 97.7913 346.763 99.6209 348.227 101.085C349.691 102.549 351.886 103.281 354.448 103.281C358.107 103.281 361.034 102.183 363.23 99.6213C365.425 96.6939 366.523 93.4004 366.523 89.7412Z" fill="white"/>
<path d="M446.661 114.994H427.633V80.5967C427.633 75.8398 426.901 72.1805 425.071 69.985C423.242 67.7895 420.68 66.3258 417.387 66.3258C414.094 66.3258 411.532 67.4236 409.337 69.985C407.141 72.5464 406.044 75.8401 406.044 79.4993V114.628H387.016V52.787H406.044V62.6666H406.41C408.605 59.0074 411.532 56.0804 414.825 54.2508C418.119 52.4212 421.778 51.3232 426.169 51.3232C433.122 51.3232 438.244 53.519 441.538 57.5441C444.831 61.9351 446.661 68.1556 446.661 76.5717V114.994Z" fill="white"/>
<path d="M490.572 106.211C488.377 109.504 485.815 112.065 482.522 113.895C479.228 115.724 475.569 116.457 471.544 116.457C463.86 116.457 457.639 113.895 452.882 108.406C448.125 102.917 445.93 95.2332 445.93 85.7193C445.93 75.4736 448.492 67.4235 453.614 61.2029C458.737 54.9823 465.69 52.0549 474.106 52.0549C478.131 52.0549 481.424 52.7867 484.351 54.2504C487.279 55.714 489.474 57.9093 490.938 60.8366H491.304V23.8789H510.332V115.359H491.304L490.572 106.211ZM465.324 84.6214C465.324 90.1101 466.421 94.1353 468.617 97.0627C470.812 99.99 474.106 101.454 478.131 101.454C482.156 101.454 485.083 99.9901 487.645 96.6969C490.206 93.7695 491.304 89.3784 491.304 84.2555V79.4989C491.304 75.4737 490.206 72.1802 487.645 69.6188C485.449 67.0573 482.156 65.5938 478.497 65.5938C474.106 65.5938 470.812 67.4234 468.617 70.7167C466.421 74.3759 465.324 79.1326 465.324 84.6214Z" fill="white"/>
<path d="M565.215 114.99H547.285V106.208H546.919C544.723 109.501 542.162 112.429 539.234 113.892C536.307 115.722 532.648 116.454 528.623 116.454C523.134 116.454 518.743 114.99 514.718 111.697C510.693 108.404 508.863 103.647 508.863 97.7917C508.863 91.937 510.693 87.5458 514.718 83.8866C518.377 80.2274 524.598 78.0318 532.648 76.934L547.285 75.1044V74.0069C547.285 71.0796 546.187 68.8839 544.357 67.4202C542.528 65.9566 539.966 65.2248 536.673 65.2248C534.112 65.2248 531.184 65.5905 528.257 66.3223C524.963 67.0541 522.036 68.5182 518.743 70.3478L512.157 59.0039C516.548 56.4425 520.572 54.6129 524.597 53.5151C528.623 52.4174 533.38 51.6855 538.137 51.6855C547.285 51.6855 554.237 53.8812 558.628 58.2723C563.019 62.6633 565.215 69.2499 565.215 78.032V114.99ZM547.285 89.7412V85.7162L535.941 87.1799C533.014 87.5459 530.452 88.6433 528.989 90.107C527.525 91.5707 526.793 93.4003 526.793 95.5958C526.793 97.7913 527.525 99.6209 528.989 101.085C530.452 102.549 532.648 103.281 535.209 103.281C538.868 103.281 541.796 102.183 543.991 99.6213C546.187 96.6939 547.285 93.4004 547.285 89.7412Z" fill="white"/>
<path d="M577.656 44.372C574.363 44.372 571.801 43.2743 569.606 41.4447C567.41 39.6151 566.312 37.0536 566.312 34.1263C566.312 31.1989 567.41 28.6374 569.606 26.4419C571.801 24.6123 574.363 23.5146 577.656 23.5146C580.949 23.5146 583.877 24.6123 585.706 26.4419C587.902 28.2715 589 30.833 589 34.1263C589 37.0536 587.902 39.615 585.706 41.8105C583.511 43.6401 580.949 44.372 577.656 44.372ZM587.17 114.994H568.142V53.1539H587.17V114.994Z" fill="white"/>
<path d="M27.6722 158.174C32.8509 155.067 37.2528 151.183 41.0073 146.781C41.7841 145.875 42.6904 144.839 43.4672 143.803C42.0431 140.696 40.6189 137.719 39.1947 134.611C32.592 120.37 25.9893 106.129 19.3865 91.8874C16.2793 85.2847 13.3014 78.6819 10.1943 72.0791C-1.32825 98.1018 -1.19872 122.571 1.52007 132.799C4.1094 142.509 9.93535 153.255 17.8328 161.929C19.1275 161.67 19.7749 161.54 20.6812 161.281C23.141 160.505 25.8597 159.21 27.6722 158.174Z" fill="white"/>
<path d="M66.3809 12.5234C60.296 15.7601 54.9879 19.2557 50.3271 22.6218C34.2732 34.4032 23.1391 47.9972 15.3711 61.5912V61.7206C16.9247 64.9573 18.3489 68.3234 19.9025 71.5601C26.5053 85.8013 33.1081 100.043 39.7109 114.284C42.8181 121.017 45.9252 127.749 49.0324 134.481C49.1619 134.093 49.2914 133.834 49.4209 133.446C51.3629 128.655 52.2692 124.771 53.1754 119.593C53.9522 114.414 54.4701 109.235 54.988 103.927C56.0237 92.6631 57.3183 81.27 61.0728 70.5243C63.5327 63.5332 67.0283 56.9304 71.4301 51.1044C71.0417 47.8677 70.5239 44.5016 70.1355 41.265C68.9703 31.6845 67.6756 22.1039 66.3809 12.5234Z" fill="white"/>
<path d="M190.154 29.3538C143.287 -7.02625 103.411 -3.78957 75.1877 8.2508C75.8351 12.9116 76.4824 17.5723 77.0003 22.3626C77.9066 28.9654 78.6834 35.5682 79.5896 42.171C86.4513 35.9566 94.7371 31.2958 104.059 29.0948C112.862 27.0234 122.961 26.8939 131.635 29.7422C133.965 30.519 135.001 33.6262 134.095 35.8271C133.059 38.287 130.47 39.0638 128.01 38.287C127.88 38.287 127.751 38.1575 127.622 38.1575C127.492 38.1575 127.233 38.0281 127.104 38.0281C125.291 37.6397 123.349 37.3807 121.407 37.1218C120.113 36.9923 118.818 36.8628 117.523 36.8628C117.135 36.8628 116.746 36.8628 116.488 36.8628C117.912 36.8628 116.617 36.8628 116.229 36.8628C115.452 36.8628 114.675 36.8629 113.898 36.9923C112.345 37.1218 110.661 37.2512 109.108 37.5102C108.202 37.6396 107.295 37.7691 106.389 38.0281C106.001 38.1575 105.483 38.287 105.094 38.287H104.965C104.965 38.287 104.835 38.287 104.706 38.4164C102.893 38.9343 100.952 39.5816 99.139 40.3584C98.1033 40.7468 97.197 41.2647 96.1612 41.6531C95.7728 41.912 95.3844 42.0415 94.8666 42.3004C94.6076 42.4299 94.4782 42.5593 94.2192 42.6888C92.2772 43.854 90.4648 45.0192 88.7817 46.3139C87.746 47.0906 86.8396 47.8675 85.8039 48.7737C85.2861 49.1621 84.8977 49.5505 84.3798 50.0684C84.1209 50.3273 83.9914 50.4568 83.7325 50.7157C79.978 54.7292 76.4824 59.39 73.8931 64.0508C70.6564 70.1357 68.4554 76.3501 67.0312 82.8234C69.3616 82.8234 71.5627 82.8234 73.8931 82.8234C86.9692 82.6939 100.045 82.5645 113.121 82.435C113.38 81.7877 113.769 81.0109 114.157 80.3636C135.001 35.9566 180.056 52.7872 181.221 53.1756C185.493 54.5998 190.413 53.305 193.261 49.5505C197.016 44.7603 199.864 36.8628 190.154 29.3538Z" fill="white"/>
<path d="M93.1865 91.7553C83.9944 91.8848 74.8022 91.8848 65.6101 92.0143C65.3511 93.5678 65.2216 95.1214 65.0922 96.675C63.927 107.162 63.6681 117.907 61.0788 128.135C59.6546 133.573 57.7126 138.752 54.8643 143.671C51.6276 149.238 47.3554 154.029 42.6946 158.43C38.0338 162.832 32.0782 166.846 25.7344 169.306C32.7256 174.614 40.7525 178.109 49.5562 178.239C66.2574 178.627 79.0746 166.457 83.4765 161.667C103.673 139.917 97.5883 123.216 109.499 91.7553C104.062 91.6258 98.6241 91.6258 93.1865 91.7553Z" fill="white"/>
<path d="M187.565 79.7145C182.387 82.8217 177.985 86.7057 174.23 91.1075C173.454 92.0138 172.547 93.0495 171.77 94.0852C173.195 97.1924 174.619 100.17 176.043 103.277C182.646 117.519 189.248 131.76 195.851 146.001C198.958 152.604 201.936 159.207 205.043 165.81C216.566 139.787 216.436 115.318 213.718 105.09C211.128 95.3799 205.302 84.6342 197.405 75.96C196.11 76.2189 195.463 76.3484 194.557 76.6073C192.097 77.3841 189.378 78.6788 187.565 79.7145Z" fill="white"/>
<path d="M148.858 225.493C154.943 222.257 160.251 218.761 164.912 215.395C180.965 203.614 192.099 190.02 199.867 176.426V176.296C198.314 173.06 196.89 169.693 195.336 166.457C188.733 152.216 182.131 137.974 175.528 123.733C172.421 117.001 169.313 110.268 166.206 103.536C166.077 103.925 165.947 104.183 165.818 104.572C163.876 109.362 162.97 113.246 162.063 118.425C161.287 123.603 160.769 128.782 160.251 134.09C159.215 145.354 157.92 156.747 154.166 167.493C151.706 174.484 148.21 181.087 143.809 186.912C144.197 190.149 144.715 193.515 145.103 196.752C146.269 206.203 147.563 215.913 148.858 225.493Z" fill="white"/>
<path d="M25.0876 208.533C71.9544 244.913 111.83 241.676 140.054 229.636C139.406 224.975 138.759 220.314 138.241 215.524C137.335 208.921 136.558 202.318 135.652 195.715C128.79 201.93 120.504 206.591 111.183 208.792C102.379 210.863 92.2807 210.992 83.6064 208.144C81.2761 207.367 80.2403 204.26 81.1466 202.059C82.1823 199.599 84.7715 198.823 87.2314 199.599C87.3609 199.599 87.4904 199.729 87.6199 199.729C87.7493 199.729 88.0083 199.858 88.1378 199.858C89.9503 200.247 91.8923 200.506 93.8343 200.765C95.129 200.894 96.4236 201.024 97.7183 201.024C98.1067 201.024 98.495 201.024 98.7539 201.024C97.3298 201.024 98.6246 201.024 99.013 201.024C99.7898 201.024 100.566 201.024 101.343 200.894C102.897 200.765 104.58 200.635 106.134 200.376C107.04 200.247 107.946 200.117 108.852 199.858C109.241 199.729 109.759 199.599 110.147 199.599H110.276C110.276 199.599 110.406 199.599 110.535 199.47C112.348 198.952 114.29 198.305 116.102 197.528C117.138 197.14 118.045 196.622 119.08 196.233C119.469 195.974 119.857 195.845 120.375 195.586C120.634 195.457 120.763 195.327 121.022 195.198C122.964 194.032 124.777 192.867 126.46 191.573C127.495 190.796 128.402 190.019 129.438 189.113C129.955 188.724 130.344 188.336 130.862 187.818C131.121 187.559 131.25 187.43 131.509 187.171C135.264 183.157 138.759 178.496 141.348 173.836C144.585 167.751 146.786 161.536 148.21 155.063C145.88 155.063 143.679 155.063 141.348 155.063C128.272 155.192 115.196 155.322 102.12 155.451C101.861 156.099 101.473 156.876 101.084 157.523C80.2403 201.93 35.186 185.099 34.0208 184.711C29.7484 183.287 24.8288 184.581 21.9805 188.336C18.226 193.126 15.3776 201.024 25.0876 208.533Z" fill="white"/>
<path d="M122.059 146.13C131.251 146 140.443 146 149.635 145.871C149.894 144.317 150.024 142.764 150.153 141.21C151.318 130.723 151.577 119.978 154.167 109.75C155.591 104.312 157.533 99.134 160.381 94.2142C163.617 88.6472 167.89 83.857 172.551 79.4551C177.211 75.0533 183.167 71.0398 189.511 68.5799C182.52 63.2718 174.493 59.7763 165.689 59.6468C148.988 59.2584 136.171 71.4282 131.769 76.2185C111.572 97.9688 117.657 114.669 105.746 146.13C111.184 146.259 116.621 146.259 122.059 146.13Z" fill="white"/>
</g>
<defs>
<clipPath id="clip0_996_25177">
<rect width="589" height="238" fill="white"/>
</clipPath>
</defs>
</svg>
