<svg width="964" height="137" viewBox="0 0 964 137" fill="none" xmlns="http://www.w3.org/2000/svg">
<path d="M620.037 127.078C613.828 129.838 607.62 131.907 601.412 133.287C595.204 134.666 588.995 135.356 581.407 135.356C562.093 135.356 546.917 129.838 535.88 119.49C524.843 108.453 519.324 93.278 519.324 73.273C519.324 54.648 525.532 38.7822 537.259 26.3655C548.986 13.9489 564.852 7.74072 584.856 7.74072C591.755 7.74072 597.273 8.43042 602.791 9.12022C608.31 9.81002 613.139 11.1897 618.657 13.2591L610.379 35.3332C606.24 33.9536 602.102 32.574 597.963 31.8842C593.824 31.1944 589.685 31.1943 585.546 31.1943C575.199 31.1943 566.921 34.6434 559.333 41.5415C551.745 48.4397 548.296 58.0969 548.296 70.5135C548.296 82.93 551.745 92.588 557.954 99.486C564.162 106.384 573.13 109.833 584.167 109.833C586.926 109.833 591.065 109.143 595.204 108.453C600.032 107.763 604.171 105.694 609 103.625L620.037 127.078Z" fill="white"/>
<path d="M659.352 135.357C644.866 135.357 633.14 131.218 624.862 122.94C616.584 114.662 612.445 103.625 612.445 89.829C612.445 75.3428 616.584 63.616 625.552 56.0281C634.519 47.7503 646.246 43.6113 660.732 43.6113C675.218 43.6113 686.945 47.7503 695.223 56.0281C703.501 64.3058 707.639 75.3427 707.639 88.449C707.639 102.935 703.501 114.662 694.533 122.94C685.565 131.218 673.839 135.357 659.352 135.357ZM660.042 114.662C666.251 114.662 671.769 112.593 674.528 108.454C677.978 104.315 679.357 97.417 679.357 89.139C679.357 80.861 677.978 74.6529 674.528 70.514C671.079 66.3751 666.251 64.3057 660.042 64.3057C653.834 64.3057 648.315 66.3752 644.866 71.2038C641.417 75.3427 639.348 81.551 639.348 89.829C639.348 98.107 640.727 104.315 644.176 109.144C648.315 112.593 653.144 114.662 660.042 114.662Z" fill="white"/>
<path d="M761.448 23.606C760.068 22.9162 757.999 22.2263 757.309 22.2263C755.93 22.2263 754.55 21.5367 753.17 21.5367C749.721 21.5367 746.962 22.9163 744.893 24.9857C742.823 27.0552 742.133 30.5042 742.133 34.6431V44.9903H762.138V64.9948H742.133V132.596H714.541V64.9948H700.055V44.9903H714.541V33.2634C714.541 23.606 717.99 16.0181 724.198 9.80978C730.406 3.60148 739.374 0.842285 749.721 0.842285C753.86 0.842285 756.619 0.842085 759.379 1.53189C762.138 2.22169 764.897 2.91168 767.656 3.60148L761.448 23.606Z" fill="white"/>
<path d="M811.108 23.606C809.728 22.9162 807.658 22.2263 806.968 22.2263C805.588 22.2263 804.208 21.5367 802.828 21.5367C799.383 21.5367 796.624 22.9163 794.554 24.9857C792.485 27.0552 791.795 30.5042 791.795 34.6431V44.9903H811.798V64.9948H791.795V132.596H764.892V64.9948H750.406V44.9903H764.892V33.2634C764.892 23.606 768.341 16.0181 774.55 9.80978C780.758 3.60148 789.725 0.842285 800.068 0.842285C804.208 0.842285 806.968 0.842085 809.728 1.53189C812.488 2.22169 815.248 2.91168 818.008 3.60148L811.108 23.606Z" fill="white"/>
<path d="M885.62 96.727H828.359C829.049 102.935 831.119 107.764 834.569 111.213C838.709 113.972 843.539 116.042 850.439 116.042C853.199 116.042 856.64 115.352 860.78 113.972C864.92 112.593 869.75 109.833 873.89 107.074L885.62 122.25C879.41 127.079 873.2 130.528 866.99 132.597C860.78 134.667 853.889 136.046 845.609 136.046C831.119 136.046 820.08 131.907 812.5 124.32C804.91 116.732 800.77 105.694 800.77 91.208C800.77 77.4121 804.91 65.6853 813.19 56.7177C821.46 47.7502 831.81 43.6113 844.92 43.6113C857.33 43.6113 866.99 47.0604 873.89 54.6484C881.48 62.2363 884.93 72.5836 884.93 87.07V96.727H885.62ZM860.78 80.172C860.78 73.2734 859.4 68.4447 856.64 65.6854C853.89 62.9262 850.44 61.5465 844.92 61.5465C840.78 61.5465 836.64 62.9262 833.88 66.3753C830.43 69.8244 829.049 74.653 828.359 80.172H860.78Z" fill="white"/>
<path d="M963.561 96.727H906.311C907.001 102.935 909.071 107.764 912.521 111.213C916.651 113.972 921.481 116.042 928.381 116.042C931.141 116.042 934.591 115.352 938.731 113.972C942.871 112.593 947.701 109.833 951.841 107.074L963.561 122.25C957.351 127.079 951.151 130.528 944.941 132.597C938.731 134.667 931.831 136.046 923.551 136.046C909.071 136.046 898.031 131.907 890.441 124.32C882.851 116.732 878.711 105.694 878.711 91.208C878.711 77.4121 882.851 65.6853 891.131 56.7177C899.411 47.7502 909.761 43.6113 922.861 43.6113C935.281 43.6113 944.941 47.0604 951.841 54.6484C959.421 62.2363 962.871 72.5836 962.871 87.07V96.727H963.561ZM938.041 80.172C938.041 73.2734 936.661 68.4447 933.901 65.6854C931.141 62.9262 927.691 61.5465 922.171 61.5465C918.031 61.5465 913.901 62.9262 911.141 66.3753C907.691 69.8244 906.311 74.653 905.621 80.172H938.041Z" fill="white"/>
<path d="M106.813 133.286H79.221V82.93H28.175V133.286H0.582031V9.80957H28.175V58.7863H79.221V9.80957H106.813V133.286Z" fill="white"/>
<path d="M188.211 133.287H162.688V120.87C159.929 125.699 155.79 129.148 151.651 131.907C147.512 134.666 141.994 135.356 136.475 135.356C128.887 135.356 121.989 133.287 117.16 128.458C111.642 123.629 108.883 117.421 108.883 109.143C108.883 100.865 111.642 94.657 117.16 89.139C122.679 84.31 130.957 80.861 142.684 78.7913L163.378 76.0321V74.6524C163.378 70.5135 161.998 67.0645 159.239 64.9951C156.48 62.9256 153.031 61.546 148.202 61.546C144.753 61.546 140.614 62.2357 136.475 63.6154C132.337 64.995 127.508 67.0646 122.679 69.134L113.711 53.2682C119.92 49.8191 125.438 47.06 131.647 45.6804C137.855 44.3008 144.063 43.6108 150.961 43.6108C164.068 43.6108 173.725 47.0599 179.934 53.2682C186.142 59.4765 188.901 69.1339 188.901 81.551V133.287H188.211ZM162.688 97.416V91.208L146.823 93.277C142.684 93.967 139.234 95.347 137.165 97.416C135.096 99.486 133.716 102.245 133.716 105.694C133.716 108.453 135.096 111.213 137.165 113.282C139.234 115.351 141.994 116.041 146.133 116.041C150.961 116.041 155.1 113.972 158.549 110.523C160.619 107.074 162.688 102.935 162.688 97.416Z" fill="white"/>
<path d="M277.199 133.287H250.296V84.31C250.296 77.4116 248.916 72.5831 246.847 69.134C244.088 65.6849 240.639 64.3052 235.81 64.3052C230.981 64.3052 227.532 66.3748 224.083 69.8239C220.634 73.2729 219.254 78.1016 219.254 83.62V133.976H192.352V45.6804H219.254V59.4767C222.704 53.9582 226.842 49.8192 230.981 47.7498C235.81 44.9905 241.328 43.6108 247.537 43.6108C257.194 43.6108 264.782 46.3702 269.611 52.5785C274.439 58.7869 277.199 67.7544 277.199 79.481V133.287Z" fill="white"/>
<path d="M339.274 120.87C336.515 125.699 332.376 129.148 327.547 131.217C322.718 133.287 317.89 134.666 311.681 134.666C300.644 134.666 291.677 130.527 285.468 122.939C278.57 115.351 275.121 104.315 275.121 90.518C275.121 76.0322 278.57 64.3053 286.158 55.3378C293.746 46.3702 303.404 42.2314 315.13 42.2314C320.649 42.2314 325.478 42.9211 329.616 44.9906C333.755 47.06 336.514 49.8192 338.584 53.9581V1.53223H365.487V131.907H338.584L339.274 120.87ZM303.403 90.518C303.403 98.106 304.783 104.314 308.232 108.453C311.681 112.592 315.82 114.662 322.028 114.662C327.547 114.662 331.686 112.592 335.135 107.764C338.584 103.625 340.653 97.416 340.653 90.518V83.62C340.653 78.1016 339.274 73.2729 335.825 69.134C332.376 64.9951 328.237 63.6154 322.718 63.6154C316.51 63.6154 311.681 65.6848 308.922 70.5135C304.783 75.3422 303.403 82.241 303.403 90.518Z" fill="white"/>
<path d="M445.516 133.287H419.993V120.87C417.234 125.699 413.095 129.148 408.956 131.907C404.817 134.666 399.299 135.356 393.78 135.356C386.192 135.356 379.294 133.287 374.465 128.458C368.947 123.629 366.188 117.421 366.188 109.143C366.188 100.865 368.947 94.657 374.465 89.139C379.984 84.31 388.262 80.861 399.988 78.7913L420.683 76.0321V74.6524C420.683 70.5135 419.303 67.0645 416.544 64.9951C413.785 62.9256 410.336 61.546 405.507 61.546C402.058 61.546 397.919 62.2357 393.78 63.6154C389.641 64.995 384.812 67.0646 379.984 69.134L371.016 53.2682C377.225 49.8191 382.743 47.06 388.951 45.6804C395.16 44.3008 401.368 43.6108 408.266 43.6108C421.373 43.6108 431.03 47.0599 437.238 53.2682C443.447 59.4765 446.206 69.1339 446.206 81.551V133.287H445.516ZM419.993 97.416V91.208L404.127 93.277C399.988 93.967 396.539 95.347 394.47 97.416C392.4 99.486 391.021 102.245 391.021 105.694C391.021 108.453 392.4 111.213 394.47 113.282C396.539 115.351 399.299 116.041 403.437 116.041C408.266 116.041 412.405 113.972 415.854 110.523C417.924 107.074 419.993 102.935 419.993 97.416Z" fill="white"/>
<path d="M462.76 33.2644C457.932 33.2644 454.482 31.8848 451.033 29.1255C447.584 26.3662 446.895 22.9172 446.895 18.7783C446.895 14.6394 448.274 10.5007 451.033 7.74154C453.793 4.98224 457.932 3.60254 462.76 3.60254C467.589 3.60254 471.038 4.98224 474.487 7.74154C477.246 10.5007 478.626 13.9496 478.626 18.7783C478.626 23.607 477.246 27.0561 474.487 29.8154C471.728 31.8848 467.589 33.2644 462.76 33.2644ZM476.556 133.287H449.654V44.9913H476.556V133.287Z" fill="white"/>
</svg>
