<svg width="1164" height="180" viewBox="0 0 1164 180" fill="none" xmlns="http://www.w3.org/2000/svg">
<path d="M820.039 148.078C813.83 150.838 807.622 152.907 801.414 154.287C795.206 155.666 788.997 156.356 781.409 156.356C762.095 156.356 746.919 150.838 735.882 140.49C724.845 129.453 719.326 114.278 719.326 94.273C719.326 75.648 725.534 59.7822 737.261 47.3655C748.988 34.9489 764.854 28.7407 784.858 28.7407C791.757 28.7407 797.275 29.4304 802.793 30.1202C808.312 30.81 813.141 32.1897 818.659 34.2591L810.381 56.3332C806.242 54.9536 802.104 53.574 797.965 52.8842C793.826 52.1944 789.687 52.1943 785.548 52.1943C775.201 52.1943 766.923 55.6434 759.335 62.5415C751.747 69.4397 748.298 79.0969 748.298 91.5135C748.298 103.93 751.747 113.588 757.956 120.486C764.164 127.384 773.132 130.833 784.169 130.833C786.928 130.833 791.067 130.143 795.206 129.453C800.034 128.763 804.173 126.694 809.002 124.625L820.039 148.078Z" fill="#0D9145"/>
<path d="M859.354 156.357C844.868 156.357 833.142 152.218 824.864 143.94C816.586 135.662 812.447 124.625 812.447 110.829C812.447 96.3428 816.586 84.616 825.554 77.0281C834.521 68.7503 846.248 64.6113 860.734 64.6113C875.22 64.6113 886.947 68.7503 895.225 77.0281C903.503 85.3058 907.641 96.3427 907.641 109.449C907.641 123.935 903.503 135.662 894.535 143.94C885.567 152.218 873.841 156.357 859.354 156.357ZM860.044 135.662C866.253 135.662 871.771 133.593 874.53 129.454C877.979 125.315 879.359 118.417 879.359 110.139C879.359 101.861 877.979 95.6529 874.53 91.514C871.081 87.3751 866.253 85.3057 860.044 85.3057C853.836 85.3057 848.317 87.3752 844.868 92.2038C841.419 96.3427 839.35 102.551 839.35 110.829C839.35 119.107 840.729 125.315 844.178 130.144C848.317 133.593 853.146 135.662 860.044 135.662Z" fill="#0D9145"/>
<path d="M961.448 44.606C960.068 43.9162 957.999 43.2263 957.309 43.2263C955.93 43.2263 954.55 42.5367 953.17 42.5367C949.721 42.5367 946.962 43.9163 944.893 45.9857C942.823 48.0552 942.133 51.5042 942.133 55.6431V65.9903H962.138V85.9948H942.133V153.596H914.541V85.9948H900.055V65.9903H914.541V54.2634C914.541 44.606 917.99 37.0181 924.198 30.8098C930.406 24.6015 939.374 21.8423 949.721 21.8423C953.86 21.8423 956.619 21.8421 959.379 22.5319C962.138 23.2217 964.897 23.9117 967.656 24.6015L961.448 44.606Z" fill="#0D9145"/>
<path d="M1011.11 44.606C1009.73 43.9162 1007.66 43.2263 1006.97 43.2263C1005.59 43.2263 1004.21 42.5367 1002.83 42.5367C999.385 42.5367 996.626 43.9163 994.556 45.9857C992.487 48.0552 991.797 51.5042 991.797 55.6431V65.9903H1011.8V85.9948H991.797V153.596H964.894V85.9948H950.408V65.9903H964.894V54.2634C964.894 44.606 968.343 37.0181 974.552 30.8098C980.76 24.6015 989.727 21.8423 1000.07 21.8423C1004.21 21.8423 1006.97 21.8421 1009.73 22.5319C1012.49 23.2217 1015.25 23.9117 1018.01 24.6015L1011.11 44.606Z" fill="#0D9145"/>
<path d="M1085.62 117.727H1028.36C1029.05 123.935 1031.12 128.764 1034.57 132.213C1038.71 134.972 1043.54 137.042 1050.44 137.042C1053.2 137.042 1056.64 136.352 1060.78 134.972C1064.92 133.593 1069.75 130.833 1073.89 128.074L1085.62 143.25C1079.41 148.079 1073.2 151.528 1066.99 153.597C1060.78 155.667 1053.89 157.046 1045.61 157.046C1031.12 157.046 1020.08 152.907 1012.5 145.32C1004.91 137.732 1000.77 126.694 1000.77 112.208C1000.77 98.4121 1004.91 86.6853 1013.19 77.7177C1021.46 68.7502 1031.81 64.6113 1044.92 64.6113C1057.33 64.6113 1066.99 68.0604 1073.89 75.6484C1081.48 83.2363 1084.93 93.5836 1084.93 108.07V117.727H1085.62ZM1060.78 101.172C1060.78 94.2734 1059.4 89.4447 1056.64 86.6854C1053.89 83.9262 1050.44 82.5465 1044.92 82.5465C1040.78 82.5465 1036.64 83.9262 1033.88 87.3753C1030.43 90.8244 1029.05 95.653 1028.36 101.172H1060.78Z" fill="#0D9145"/>
<path d="M1163.56 117.727H1106.31C1107 123.935 1109.07 128.764 1112.52 132.213C1116.65 134.972 1121.48 137.042 1128.38 137.042C1131.14 137.042 1134.59 136.352 1138.73 134.972C1142.87 133.593 1147.7 130.833 1151.84 128.074L1163.56 143.25C1157.35 148.079 1151.15 151.528 1144.94 153.597C1138.73 155.667 1131.83 157.046 1123.55 157.046C1109.07 157.046 1098.03 152.907 1090.44 145.32C1082.85 137.732 1078.71 126.694 1078.71 112.208C1078.71 98.4121 1082.85 86.6853 1091.13 77.7177C1099.41 68.7502 1109.76 64.6113 1122.86 64.6113C1135.28 64.6113 1144.94 68.0604 1151.84 75.6484C1159.42 83.2363 1162.87 93.5836 1162.87 108.07V117.727H1163.56ZM1138.04 101.172C1138.04 94.2734 1136.66 89.4447 1133.9 86.6854C1131.14 83.9262 1127.69 82.5465 1122.17 82.5465C1118.03 82.5465 1113.9 83.9262 1111.14 87.3753C1107.69 90.8244 1106.31 95.653 1105.62 101.172H1138.04Z" fill="#0D9145"/>
<path d="M306.813 154.286H279.221V103.93H228.175V154.286H200.582V30.8096H228.175V79.7863H279.221V30.8096H306.813V154.286Z" fill="#0D9145"/>
<path d="M388.209 154.287H362.686V141.87C359.927 146.699 355.788 150.148 351.649 152.907C347.51 155.666 341.992 156.356 336.473 156.356C328.885 156.356 321.987 154.287 317.158 149.458C311.64 144.629 308.881 138.421 308.881 130.143C308.881 121.865 311.64 115.657 317.158 110.139C322.677 105.31 330.955 101.861 342.682 99.7913L363.376 97.0321V95.6524C363.376 91.5135 361.996 88.0645 359.237 85.9951C356.478 83.9256 353.029 82.546 348.2 82.546C344.751 82.546 340.612 83.2358 336.473 84.6154C332.335 85.995 327.506 88.0646 322.677 90.134L313.709 74.2682C319.918 70.8191 325.436 68.06 331.645 66.6804C337.853 65.3008 344.061 64.6108 350.959 64.6108C364.066 64.6108 373.723 68.0599 379.932 74.2682C386.14 80.4765 388.899 90.1339 388.899 102.551V154.287H388.209ZM362.686 118.416V112.208L346.821 114.277C342.682 114.967 339.232 116.347 337.163 118.416C335.094 120.486 333.714 123.245 333.714 126.694C333.714 129.453 335.094 132.213 337.163 134.282C339.232 136.351 341.992 137.041 346.131 137.041C350.959 137.041 355.098 134.972 358.547 131.523C360.617 128.074 362.686 123.935 362.686 118.416Z" fill="#0D9145"/>
<path d="M477.197 154.287H450.294V105.31C450.294 98.4116 448.914 93.5831 446.845 90.134C444.086 86.6849 440.637 85.3052 435.808 85.3052C430.979 85.3052 427.53 87.3748 424.081 90.8239C420.632 94.2729 419.252 99.1016 419.252 104.62V154.976H392.35V66.6804H419.252V80.4767C422.702 74.9582 426.84 70.8192 430.979 68.7498C435.808 65.9905 441.326 64.6108 447.535 64.6108C457.192 64.6108 464.78 67.3702 469.609 73.5785C474.437 79.7869 477.197 88.7544 477.197 100.481V154.287Z" fill="#0D9145"/>
<path d="M539.276 141.87C536.517 146.699 532.378 150.148 527.549 152.217C522.72 154.287 517.892 155.666 511.683 155.666C500.646 155.666 491.679 151.527 485.47 143.939C478.572 136.351 475.123 125.315 475.123 111.518C475.123 97.0322 478.572 85.3053 486.16 76.3378C493.748 67.3702 503.406 63.2314 515.132 63.2314C520.651 63.2314 525.48 63.9211 529.618 65.9906C533.757 68.06 536.516 70.8192 538.586 74.9581V22.5322H565.489V152.907H538.586L539.276 141.87ZM503.405 111.518C503.405 119.106 504.785 125.314 508.234 129.453C511.683 133.592 515.822 135.662 522.03 135.662C527.549 135.662 531.688 133.592 535.137 128.764C538.586 124.625 540.655 118.416 540.655 111.518V104.62C540.655 99.1016 539.276 94.2729 535.827 90.134C532.378 85.9951 528.239 84.6154 522.72 84.6154C516.512 84.6154 511.683 86.6848 508.924 91.5135C504.785 96.3422 503.405 103.241 503.405 111.518Z" fill="#0D9145"/>
<path d="M645.514 154.287H619.991V141.87C617.232 146.699 613.093 150.148 608.954 152.907C604.815 155.666 599.297 156.356 593.778 156.356C586.19 156.356 579.292 154.287 574.463 149.458C568.945 144.629 566.186 138.421 566.186 130.143C566.186 121.865 568.945 115.657 574.463 110.139C579.982 105.31 588.26 101.861 599.986 99.7913L620.681 97.0321V95.6524C620.681 91.5135 619.301 88.0645 616.542 85.9951C613.783 83.9256 610.334 82.546 605.505 82.546C602.056 82.546 597.917 83.2358 593.778 84.6154C589.639 85.995 584.81 88.0646 579.982 90.134L571.014 74.2682C577.223 70.8191 582.741 68.06 588.949 66.6804C595.158 65.3008 601.366 64.6108 608.264 64.6108C621.371 64.6108 631.028 68.0599 637.236 74.2682C643.445 80.4765 646.204 90.1339 646.204 102.551V154.287H645.514ZM619.991 118.416V112.208L604.125 114.277C599.986 114.967 596.537 116.347 594.468 118.416C592.398 120.486 591.019 123.245 591.019 126.694C591.019 129.453 592.398 132.213 594.468 134.282C596.537 136.351 599.297 137.041 603.435 137.041C608.264 137.041 612.403 134.972 615.852 131.523C617.922 128.074 619.991 123.935 619.991 118.416Z" fill="#0D9145"/>
<path d="M662.758 54.2644C657.93 54.2644 654.48 52.8848 651.031 50.1255C647.582 47.3662 646.893 43.9172 646.893 39.7783C646.893 35.6394 648.272 31.5007 651.031 28.7415C653.791 25.9822 657.93 24.6025 662.758 24.6025C667.587 24.6025 671.036 25.9822 674.485 28.7415C677.244 31.5007 678.624 34.9496 678.624 39.7783C678.624 44.607 677.244 48.0561 674.485 50.8154C671.726 52.8848 667.587 54.2644 662.758 54.2644ZM676.554 154.287H649.652V65.9913H676.554V154.287Z" fill="#0D9145"/>
<path d="M20.9071 119.504C24.8197 117.156 28.1454 114.222 30.982 110.896C31.5689 110.211 32.2536 109.429 32.8405 108.646C31.7645 106.299 30.6886 104.049 29.6126 101.701C24.6241 90.9415 19.6355 80.1819 14.6469 69.4222C12.2994 64.4337 10.0496 59.4451 7.70206 54.4565C-1.00348 74.1174 -0.905677 92.6044 1.14844 100.332C3.10474 107.668 7.50642 115.787 13.4731 122.34C14.4513 122.145 14.9404 122.047 15.6251 121.851C17.4836 121.264 19.5377 120.286 20.9071 119.504Z" fill="#0D9145"/>
<path d="M50.252 9.4624C45.6547 11.9078 41.6443 14.5488 38.123 17.092C25.9939 25.9931 17.5818 36.2637 11.7129 46.5343V46.6321C12.8867 49.0775 13.9626 51.6207 15.1364 54.0661C20.125 64.8257 25.1136 75.5854 30.1021 86.345C32.4497 91.4314 34.7973 96.5178 37.1448 101.604C37.2426 101.311 37.3404 101.115 37.4383 100.822C38.9055 97.2025 39.5902 94.268 40.2749 90.3554C40.8618 86.4428 41.253 82.5303 41.6443 78.5198C42.4268 70.0099 43.405 61.4022 46.2416 53.2835C48.1001 48.0015 50.7411 43.013 54.0668 38.6113C53.7734 36.1659 53.3821 33.6227 53.0887 31.1773C52.1105 23.939 51.2302 16.7007 50.252 9.4624Z" fill="#0D9145"/>
<path d="M143.667 22.1775C108.258 -5.3085 78.1305 -2.86312 56.8069 6.23368C57.2959 9.75502 57.785 13.2764 58.1763 16.8955C58.861 21.8841 59.4479 26.8727 60.1326 31.8612C65.3168 27.1661 71.577 23.6447 78.6196 21.9819C85.2711 20.4168 92.9006 20.319 99.4542 22.471C101.215 23.0579 101.997 25.4054 101.313 27.0683C100.53 28.9268 98.5739 29.5137 96.7154 28.9268C96.6176 28.9268 96.5198 28.8289 96.422 28.8289C96.3241 28.8289 96.1285 28.7311 96.0307 28.7311C94.6613 28.4377 93.1941 28.2421 91.7269 28.0464C90.7487 27.9486 89.7705 27.8508 88.7924 27.8508C88.499 27.8508 88.2055 27.8508 88.0099 27.8508C89.0859 27.8508 88.1077 27.8508 87.8143 27.8508C87.2274 27.8508 86.6405 27.8508 86.0536 27.9486C84.8798 28.0464 83.6082 28.1442 82.4344 28.3399C81.7497 28.4377 81.065 28.5355 80.3803 28.7311C80.0869 28.829 79.6956 28.9268 79.4021 28.9268H79.3043C79.3043 28.9268 79.2065 28.9268 79.1087 29.0246C77.7393 29.4158 76.2721 29.9049 74.9027 30.4918C74.1201 30.7853 73.4354 31.1765 72.6529 31.47C72.3595 31.6656 72.066 31.7634 71.6748 31.959C71.4791 32.0569 71.3813 32.1547 71.1857 32.2525C69.7185 33.1328 68.349 34.0131 67.0774 34.9913C66.2949 35.5782 65.6102 36.1651 64.8277 36.8498C64.4365 37.1432 64.143 37.4367 63.7517 37.8279C63.5561 38.0236 63.4583 38.1214 63.2627 38.317C60.426 41.3493 57.785 44.8706 55.8287 48.392C53.3833 52.9893 51.7205 57.6844 50.6445 62.5751C52.4052 62.5751 54.068 62.5751 55.8287 62.5751C65.708 62.4773 75.5874 62.3795 85.4667 62.2817C85.6623 61.7926 85.9558 61.2057 86.2492 60.7167C101.997 27.1661 136.037 39.882 136.917 40.1755C140.145 41.2515 143.862 40.2733 146.014 37.4367C148.851 33.8175 151.003 27.8508 143.667 22.1775Z" fill="#0D9145"/>
<path d="M70.4031 69.3238C63.4582 69.4217 56.5133 69.4217 49.5684 69.5195C49.3728 70.6933 49.275 71.8671 49.1772 73.0408C48.2968 80.9639 48.1012 89.0825 46.1449 96.8099C45.0689 100.918 43.6017 104.831 41.4498 108.548C39.0044 112.754 35.7765 116.373 32.2552 119.699C28.7338 123.024 24.2343 126.057 19.4414 127.915C24.7234 131.926 30.7879 134.567 37.4394 134.664C50.0575 134.958 59.7412 125.763 63.0669 122.144C78.3261 105.711 73.7287 93.0929 82.7277 69.3238C78.6195 69.226 74.5113 69.226 70.4031 69.3238Z" fill="#0D9145"/>
<path d="M141.709 60.2268C137.796 62.5743 134.471 65.5088 131.634 68.8345C131.047 69.5192 130.362 70.3017 129.775 71.0842C130.851 73.4318 131.927 75.6816 133.003 78.0291C137.992 88.7888 142.98 99.5484 147.969 110.308C150.317 115.297 152.566 120.285 154.914 125.274C163.619 105.613 163.522 87.1259 161.467 79.3985C159.511 72.0624 155.11 63.9437 149.143 57.3901C148.165 57.5858 147.676 57.6836 146.991 57.8792C145.23 58.4661 143.078 59.4442 141.709 60.2268Z" fill="#0D9145"/>
<path d="M112.461 170.366C117.059 167.921 121.069 165.28 124.59 162.737C136.719 153.836 145.132 143.565 151 133.294V133.197C149.827 130.751 148.751 128.208 147.577 125.763C142.588 115.003 137.6 104.243 132.611 93.4838C130.264 88.3974 127.916 83.311 125.569 78.2246C125.471 78.5181 125.373 78.7137 125.275 79.0071C123.808 82.6263 123.123 85.5607 122.438 89.4733C121.852 93.3859 121.46 97.2985 121.069 101.309C120.286 109.819 119.308 118.427 116.472 126.545C114.613 131.827 111.972 136.816 108.646 141.217C108.94 143.663 109.331 146.206 109.625 148.651C110.505 155.89 111.483 163.128 112.461 170.366Z" fill="#0D9145"/>
<path d="M18.95 157.553C54.3591 185.039 84.4861 182.594 105.81 173.497C105.321 169.975 104.832 166.454 104.44 162.835C103.756 157.846 103.169 152.858 102.484 147.869C97.2999 152.564 91.0397 156.086 83.997 157.749C77.3456 159.314 69.716 159.411 63.1624 157.259C61.4017 156.673 60.6192 154.325 61.3039 152.662C62.0865 150.804 64.0428 150.217 65.9012 150.804C65.9991 150.804 66.0969 150.901 66.1947 150.901C66.2925 150.901 66.4881 150.999 66.5859 150.999C67.9553 151.293 69.4226 151.488 70.8898 151.684C71.868 151.782 72.8461 151.88 73.8243 151.88C74.1177 151.88 74.4112 151.88 74.6068 151.88C73.5308 151.88 74.509 151.88 74.8024 151.88C75.3893 151.88 75.9762 151.88 76.5631 151.782C77.7369 151.684 79.0085 151.586 80.1823 151.391C80.867 151.293 81.5516 151.195 82.2364 150.999C82.5298 150.901 82.9211 150.804 83.2145 150.804H83.3123C83.3123 150.804 83.4101 150.804 83.508 150.706C84.8774 150.315 86.3446 149.825 87.714 149.239C88.4965 148.945 89.1812 148.554 89.9638 148.26C90.2572 148.065 90.5507 147.967 90.9419 147.771C91.1375 147.674 91.2354 147.576 91.431 147.478C92.8982 146.598 94.2676 145.717 95.5392 144.739C96.3217 144.152 97.0064 143.565 97.789 142.881C98.1802 142.587 98.4736 142.294 98.8649 141.902C99.0605 141.707 99.1584 141.609 99.354 141.413C102.191 138.381 104.832 134.86 106.788 131.338C109.233 126.741 110.896 122.046 111.972 117.155C110.211 117.155 108.549 117.155 106.788 117.155C96.9086 117.253 87.0293 117.351 77.15 117.449C76.9544 117.938 76.6609 118.525 76.3674 119.014C60.6192 152.564 26.5796 139.848 25.6993 139.555C22.4714 138.479 18.7544 139.457 16.6025 142.294C13.8636 146.011 11.6139 151.88 18.95 157.553Z" fill="#0D9145"/>
<path d="M92.2134 110.504C99.1582 110.406 106.103 110.406 113.048 110.308C113.244 109.135 113.341 107.961 113.439 106.787C114.32 98.8641 114.515 90.7454 116.471 83.018C117.547 78.9098 119.015 74.9972 121.167 71.2802C123.612 67.0742 126.84 63.455 130.361 60.1293C133.883 56.8036 138.382 53.7713 143.175 51.9128C137.893 47.9024 131.828 45.2614 125.177 45.1636C112.559 44.8702 102.875 54.0648 99.5495 57.6839C84.2904 74.1168 88.8877 86.735 79.8887 110.504C83.9969 110.504 88.1051 110.504 92.2134 110.504Z" fill="#0D9145"/>
</svg>
