<svg width="163" height="180" viewBox="0 0 163 180" fill="none" xmlns="http://www.w3.org/2000/svg">
<path d="M20.9071 119.504C24.8197 117.156 28.1454 114.222 30.982 110.896C31.5689 110.211 32.2536 109.429 32.8405 108.646C31.7645 106.299 30.6886 104.049 29.6126 101.701C24.6241 90.9415 19.6355 80.1819 14.6469 69.4222C12.2994 64.4337 10.0496 59.4451 7.70206 54.4565C-1.00348 74.1174 -0.905678 92.6044 1.14844 100.332C3.10474 107.668 7.50642 115.787 13.4731 122.34C14.4513 122.145 14.9404 122.047 15.6251 121.851C17.4836 121.264 19.5377 120.286 20.9071 119.504Z" fill="white"/>
<path d="M50.2539 9.4624C45.6566 11.9078 41.6462 14.5488 38.1249 17.092C25.9958 25.9931 17.5837 36.2637 11.7148 46.5343V46.6321C12.8886 49.0775 13.9645 51.6207 15.1383 54.0661C20.1269 64.8257 25.1155 75.5854 30.104 86.345C32.4516 91.4314 34.7992 96.5178 37.1467 101.604C37.2445 101.311 37.3423 101.115 37.4402 100.822C38.9074 97.2025 39.5921 94.268 40.2768 90.3554C40.8637 86.4428 41.2549 82.5303 41.6462 78.5198C42.4287 70.0099 43.4069 61.4022 46.2435 53.2835C48.102 48.0015 50.743 43.013 54.0687 38.6113C53.7753 36.1659 53.384 33.6227 53.0906 31.1773C52.1124 23.939 51.2321 16.7007 50.2539 9.4624Z" fill="white"/>
<path d="M143.667 22.1775C108.258 -5.3085 78.1305 -2.86312 56.8069 6.23368C57.2959 9.75502 57.785 13.2764 58.1763 16.8955C58.861 21.8841 59.4479 26.8727 60.1326 31.8612C65.3168 27.1661 71.577 23.6447 78.6196 21.9819C85.2711 20.4168 92.9006 20.319 99.4542 22.471C101.215 23.0579 101.997 25.4054 101.313 27.0683C100.53 28.9268 98.5739 29.5137 96.7154 28.9268C96.6176 28.9268 96.5198 28.8289 96.422 28.8289C96.3241 28.8289 96.1285 28.7311 96.0307 28.7311C94.6613 28.4377 93.1941 28.2421 91.7269 28.0464C90.7487 27.9486 89.7706 27.8508 88.7924 27.8508C88.499 27.8508 88.2055 27.8508 88.0099 27.8508C89.0859 27.8508 88.1077 27.8508 87.8142 27.8508C87.2274 27.8508 86.6405 27.8508 86.0536 27.9486C84.8798 28.0464 83.6082 28.1442 82.4344 28.3399C81.7497 28.4377 81.065 28.5355 80.3803 28.7311C80.0869 28.829 79.6956 28.9268 79.4021 28.9268H79.3043C79.3043 28.9268 79.2065 28.9268 79.1087 29.0246C77.7393 29.4158 76.2721 29.9049 74.9027 30.4918C74.1201 30.7853 73.4354 31.1765 72.6529 31.47C72.3595 31.6656 72.066 31.7634 71.6748 31.959C71.4791 32.0569 71.3813 32.1547 71.1857 32.2525C69.7185 33.1328 68.349 34.0131 67.0774 34.9913C66.2949 35.5782 65.6102 36.1651 64.8277 36.8498C64.4365 37.1432 64.143 37.4367 63.7517 37.8279C63.5561 38.0236 63.4583 38.1214 63.2627 38.317C60.426 41.3493 57.785 44.8706 55.8287 48.392C53.3833 52.9893 51.7205 57.6844 50.6445 62.5751C52.4052 62.5751 54.068 62.5751 55.8287 62.5751C65.708 62.4773 75.5874 62.3795 85.4667 62.2817C85.6623 61.7926 85.9558 61.2057 86.2492 60.7167C101.997 27.1661 136.037 39.8821 136.917 40.1755C140.145 41.2515 143.862 40.2733 146.014 37.4367C148.851 33.8175 151.003 27.8508 143.667 22.1775Z" fill="white"/>
<path d="M70.4031 69.3238C63.4582 69.4217 56.5133 69.4217 49.5684 69.5195C49.3728 70.6933 49.275 71.8671 49.1772 73.0408C48.2968 80.9639 48.1012 89.0825 46.1449 96.8099C45.0689 100.918 43.6017 104.831 41.4498 108.548C39.0044 112.754 35.7765 116.373 32.2552 119.699C28.7338 123.024 24.2343 126.057 19.4414 127.915C24.7234 131.926 30.7879 134.567 37.4394 134.664C50.0575 134.958 59.7412 125.763 63.0669 122.144C78.3261 105.711 73.7287 93.0929 82.7277 69.3238C78.6195 69.226 74.5113 69.226 70.4031 69.3238Z" fill="white"/>
<path d="M141.707 60.2268C137.794 62.5743 134.469 65.5088 131.632 68.8345C131.045 69.5192 130.36 70.3017 129.773 71.0842C130.849 73.4318 131.925 75.6816 133.001 78.0291C137.99 88.7888 142.978 99.5484 147.967 110.308C150.315 115.297 152.564 120.285 154.912 125.274C163.617 105.613 163.52 87.1259 161.465 79.3985C159.509 72.0624 155.108 63.9437 149.141 57.3901C148.163 57.5858 147.674 57.6836 146.989 57.8792C145.228 58.4661 143.076 59.4442 141.707 60.2268Z" fill="white"/>
<path d="M112.46 170.366C117.058 167.921 121.068 165.28 124.589 162.737C136.718 153.836 145.131 143.565 150.999 133.294V133.197C149.826 130.751 148.75 128.208 147.576 125.763C142.587 115.003 137.599 104.243 132.61 93.4838C130.263 88.3974 127.915 83.311 125.568 78.2246C125.47 78.5181 125.372 78.7137 125.274 79.0071C123.807 82.6263 123.122 85.5607 122.437 89.4733C121.851 93.3859 121.459 97.2985 121.068 101.309C120.285 109.819 119.307 118.427 116.471 126.545C114.612 131.827 111.971 136.816 108.645 141.217C108.939 143.663 109.33 146.206 109.624 148.651C110.504 155.89 111.482 163.128 112.46 170.366Z" fill="white"/>
<path d="M18.9481 157.553C54.3572 185.039 84.4842 182.594 105.808 173.497C105.319 169.975 104.83 166.454 104.438 162.835C103.754 157.846 103.167 152.858 102.482 147.869C97.298 152.564 91.0378 156.086 83.9951 157.749C77.3437 159.314 69.7141 159.411 63.1605 157.259C61.3998 156.673 60.6173 154.325 61.302 152.662C62.0846 150.804 64.0409 150.217 65.8994 150.804C65.9972 150.804 66.095 150.901 66.1928 150.901C66.2906 150.901 66.4862 150.999 66.584 150.999C67.9534 151.293 69.4207 151.488 70.8879 151.684C71.8661 151.782 72.8442 151.88 73.8224 151.88C74.1158 151.88 74.4093 151.88 74.6049 151.88C73.5289 151.88 74.5071 151.88 74.8005 151.88C75.3874 151.88 75.9743 151.88 76.5612 151.782C77.735 151.684 79.0066 151.586 80.1804 151.391C80.8651 151.293 81.5497 151.195 82.2344 150.999C82.5279 150.901 82.9192 150.804 83.2126 150.804H83.3104C83.3104 150.804 83.4082 150.804 83.5061 150.706C84.8755 150.315 86.3427 149.825 87.7121 149.239C88.4946 148.945 89.1793 148.554 89.9619 148.26C90.2553 148.065 90.5488 147.967 90.94 147.771C91.1356 147.674 91.2335 147.576 91.4291 147.478C92.8963 146.598 94.2657 145.717 95.5373 144.739C96.3198 144.152 97.0045 143.565 97.7871 142.881C98.1783 142.587 98.4717 142.294 98.863 141.902C99.0586 141.707 99.1565 141.609 99.3521 141.413C102.189 138.381 104.83 134.86 106.786 131.338C109.231 126.741 110.894 122.046 111.97 117.155C110.209 117.155 108.547 117.155 106.786 117.155C96.9067 117.253 87.0274 117.351 77.1481 117.449C76.9525 117.938 76.659 118.525 76.3655 119.014C60.6173 152.564 26.5777 139.848 25.6974 139.555C22.4695 138.479 18.7525 139.457 16.6006 142.294C13.8617 146.011 11.612 151.88 18.9481 157.553Z" fill="white"/>
<path d="M92.2153 110.504C99.1601 110.406 106.105 110.406 113.05 110.308C113.246 109.135 113.343 107.961 113.441 106.787C114.322 98.8641 114.517 90.7454 116.473 83.018C117.549 78.9098 119.017 74.9972 121.169 71.2802C123.614 67.0742 126.842 63.455 130.363 60.1293C133.885 56.8036 138.384 53.7713 143.177 51.9128C137.895 47.9024 131.83 45.2614 125.179 45.1636C112.561 44.8702 102.877 54.0648 99.5514 57.6839C84.2923 74.1168 88.8896 86.735 79.8906 110.504C83.9988 110.504 88.107 110.504 92.2153 110.504Z" fill="white"/>
</svg>
