<svg width="589" height="238" viewBox="0 0 589 238" fill="none" xmlns="http://www.w3.org/2000/svg">
<path d="M323.347 219.756C318.956 221.952 314.565 223.049 310.174 224.147C305.783 224.879 301.392 225.611 296.269 225.611C282.73 225.611 272.119 221.952 264.434 214.268C256.75 206.583 252.725 195.971 252.725 181.701C252.725 168.528 257.116 157.55 265.532 148.768C273.948 139.986 285.292 135.595 298.831 135.595C303.588 135.595 307.612 135.961 311.272 136.692C314.931 137.424 318.59 138.522 322.615 139.986L316.76 155.72C313.833 154.623 310.906 153.891 308.345 153.525C305.783 153.159 302.49 152.793 299.562 152.793C292.61 152.793 286.389 155.354 281.266 160.111C276.144 165.234 273.582 171.821 273.582 180.237C273.582 189.019 275.778 195.971 280.535 200.728C284.926 205.851 291.146 208.047 299.197 208.047C301.392 208.047 303.953 207.681 306.881 206.949C310.174 206.217 313.467 205.119 316.76 203.656L323.347 219.756Z" fill="#0C9044"/>
<path d="M350.424 225.611C340.178 225.611 332.127 222.683 325.907 216.829C320.052 210.974 317.125 203.29 317.125 193.41C317.125 183.164 320.418 175.114 326.273 169.259C332.494 163.404 340.544 160.477 351.155 160.477C361.401 160.477 369.451 163.404 375.306 169.259C381.16 175.114 384.088 182.798 384.088 192.312C384.088 202.558 381.161 210.608 374.94 216.463C369.085 222.683 361.035 225.611 350.424 225.611ZM351.155 210.974C355.912 210.974 359.206 209.51 361.401 206.217C363.597 203.29 364.694 198.533 364.694 192.678C364.694 186.823 363.597 182.432 361.401 179.871C359.206 177.31 355.546 175.48 351.155 175.48C346.764 175.48 343.105 176.943 340.543 180.237C337.982 183.53 336.884 187.555 336.884 193.41C336.884 199.264 337.982 203.656 340.543 206.949C342.739 209.51 346.398 210.974 351.155 210.974Z" fill="#0C9044"/>
<path d="M422.514 146.937C421.416 146.571 420.318 146.205 419.22 145.839C418.123 145.473 417.391 145.474 415.928 145.474C413.366 145.474 411.536 146.205 410.072 148.035C408.609 149.865 407.877 152.06 407.877 154.987V162.306H422.148V176.211H407.877V224.146H388.849V176.211H378.604V162.306H388.849V153.89C388.849 146.937 391.045 141.448 395.802 137.423C400.559 133.398 406.413 131.203 413.732 131.203C416.659 131.203 418.855 131.203 420.684 131.569C422.514 131.935 424.343 132.3 426.539 133.032L422.514 146.937Z" fill="#0C9044"/>
<path d="M457.641 146.937C456.543 146.571 455.446 146.205 454.348 145.839C453.25 145.473 452.518 145.474 451.054 145.474C448.493 145.474 446.664 146.205 445.2 148.035C443.736 149.865 443.004 152.06 443.004 154.987V162.306H457.275V176.211H443.004V224.146H423.976V176.211H413.73V162.306H423.976V153.89C423.976 146.937 426.172 141.448 430.929 137.423C435.686 133.398 441.541 131.203 448.859 131.203C451.786 131.203 453.982 131.203 455.811 131.569C457.641 131.935 459.471 132.3 461.666 133.032L457.641 146.937Z" fill="#0C9044"/>
<path d="M509.965 198.535H469.714C470.08 202.926 471.544 206.219 474.105 208.414C476.666 210.61 480.326 211.708 485.083 211.708C486.912 211.708 489.474 211.342 492.401 210.244C495.694 209.146 498.622 207.317 501.549 205.121L509.965 216.099C505.574 219.392 501.549 221.954 496.792 223.417C492.401 224.881 487.278 225.613 482.156 225.613C472.276 225.613 464.591 222.685 458.737 217.196C453.248 211.708 450.32 204.024 450.32 194.144C450.32 184.264 453.248 176.213 459.102 169.993C464.957 163.772 472.275 160.845 481.423 160.845C489.84 160.845 496.792 163.407 501.915 168.529C507.038 173.652 509.599 181.336 509.599 191.216V198.535H509.965ZM492.401 186.825C492.401 182.068 491.669 178.775 489.84 176.579C488.01 174.384 485.449 173.652 481.79 173.652C478.862 173.652 475.935 174.75 473.739 177.311C471.544 179.507 470.08 182.8 469.714 187.191H492.401V186.825Z" fill="#0C9044"/>
<path d="M564.489 198.535H524.238C524.604 202.926 526.067 206.219 528.628 208.414C531.19 210.61 534.849 211.708 539.606 211.708C541.436 211.708 543.997 211.342 546.924 210.244C550.218 209.146 553.145 207.317 556.072 205.121L564.489 216.099C560.098 219.392 556.073 221.954 551.316 223.417C546.925 224.881 541.802 225.613 536.679 225.613C526.799 225.613 519.115 222.685 513.26 217.196C507.771 211.708 504.844 204.024 504.844 194.144C504.844 184.264 507.771 176.213 513.626 169.993C519.481 163.772 526.799 160.845 535.947 160.845C544.363 160.845 551.315 163.407 556.438 168.529C561.561 173.652 564.123 181.336 564.123 191.216V198.535H564.489ZM546.924 186.825C546.924 182.068 546.193 178.775 544.363 176.579C542.534 174.384 539.972 173.652 536.313 173.652C533.385 173.652 530.458 174.75 528.263 177.311C526.067 179.507 524.604 182.8 524.238 187.191H546.924V186.825Z" fill="#0C9044"/>
<path d="M327.372 114.993H307.978V79.8652H272.118V114.993H252.725V28.2705H272.118V62.6668H307.978V28.2705H327.372V114.993Z" fill="#0C9044"/>
<path d="M384.453 114.99H366.523V106.208H366.157C363.962 109.501 361.4 112.429 358.473 113.892C355.546 115.722 351.886 116.454 347.861 116.454C342.372 116.454 337.981 114.99 333.956 111.697C329.931 108.404 328.102 103.647 328.102 97.7922C328.102 91.9375 329.931 87.5463 333.956 83.8871C337.615 80.2279 343.836 78.0323 351.886 76.9345L366.523 75.1049V74.0074C366.523 71.0801 365.425 68.8844 363.596 67.4207C361.766 65.9571 359.205 65.2253 355.911 65.2253C353.35 65.2253 350.423 65.591 347.495 66.3228C344.202 67.0546 341.274 68.5187 337.981 70.3483L331.395 59.0044C335.786 56.443 339.811 54.6134 343.836 53.5156C347.861 52.4179 352.618 51.686 357.375 51.686C366.523 51.686 373.475 53.8817 377.866 58.2728C382.257 62.6638 384.453 69.2504 384.453 78.0325V114.99ZM366.523 89.7417V85.7167L355.18 87.1804C352.252 87.5464 349.691 88.6438 348.227 90.1075C346.763 91.5712 346.032 93.4008 346.032 95.5963C346.032 97.7918 346.763 99.6214 348.227 101.085C349.691 102.549 351.886 103.281 354.448 103.281C358.107 103.281 361.034 102.183 363.23 99.6218C365.425 96.6944 366.523 93.4009 366.523 89.7417Z" fill="#0C9044"/>
<path d="M446.659 114.994H427.631V80.5972C427.631 75.8403 426.899 72.181 425.069 69.9855C423.24 67.79 420.678 66.3263 417.385 66.3263C414.092 66.3263 411.53 67.4241 409.335 69.9855C407.139 72.5469 406.042 75.8406 406.042 79.4998V114.628H387.014V52.7875H406.042V62.6671H406.408C408.603 59.0079 411.53 56.0809 414.823 54.2513C418.117 52.4217 421.776 51.3237 426.167 51.3237C433.12 51.3237 438.242 53.5195 441.536 57.5446C444.829 61.9356 446.659 68.1561 446.659 76.5722V114.994Z" fill="#0C9044"/>
<path d="M490.57 106.211C488.375 109.504 485.813 112.065 482.52 113.895C479.226 115.724 475.567 116.457 471.542 116.457C463.858 116.457 457.637 113.895 452.88 108.406C448.123 102.917 445.928 95.2332 445.928 85.7193C445.928 75.4736 448.49 67.4235 453.612 61.2029C458.735 54.9823 465.688 52.0549 474.104 52.0549C478.129 52.0549 481.422 52.7867 484.349 54.2504C487.277 55.714 489.472 57.9093 490.936 60.8366H491.302V23.8789H510.33V115.359H491.302L490.57 106.211ZM465.322 84.6214C465.322 90.1101 466.419 94.1353 468.615 97.0627C470.81 99.99 474.104 101.454 478.129 101.454C482.154 101.454 485.081 99.9901 487.643 96.6969C490.204 93.7695 491.302 89.3784 491.302 84.2555V79.4989C491.302 75.4737 490.204 72.1802 487.643 69.6188C485.447 67.0573 482.154 65.5938 478.495 65.5938C474.104 65.5938 470.81 67.4234 468.615 70.7167C466.419 74.3759 465.322 79.1326 465.322 84.6214Z" fill="#0C9044"/>
<path d="M565.217 114.99H547.287V106.208H546.921C544.725 109.501 542.164 112.429 539.236 113.892C536.309 115.722 532.65 116.454 528.625 116.454C523.136 116.454 518.745 114.99 514.72 111.697C510.695 108.404 508.865 103.647 508.865 97.7922C508.865 91.9375 510.695 87.5463 514.72 83.8871C518.379 80.2279 524.6 78.0323 532.65 76.9345L547.287 75.1049V74.0074C547.287 71.0801 546.189 68.8844 544.359 67.4207C542.53 65.9571 539.968 65.2253 536.675 65.2253C534.114 65.2253 531.186 65.591 528.259 66.3228C524.965 67.0546 522.038 68.5187 518.745 70.3483L512.159 59.0044C516.55 56.443 520.574 54.6134 524.599 53.5156C528.625 52.4179 533.382 51.686 538.139 51.686C547.287 51.686 554.239 53.8817 558.63 58.2728C563.021 62.6638 565.217 69.2504 565.217 78.0325V114.99ZM547.287 89.7417V85.7167L535.943 87.1804C533.016 87.5464 530.454 88.6438 528.991 90.1075C527.527 91.5712 526.795 93.4008 526.795 95.5963C526.795 97.7918 527.527 99.6214 528.991 101.085C530.454 102.549 532.65 103.281 535.211 103.281C538.87 103.281 541.798 102.183 543.993 99.6218C546.189 96.6944 547.287 93.4009 547.287 89.7417Z" fill="#0C9044"/>
<path d="M577.658 44.3716C574.365 44.3716 571.803 43.2739 569.608 41.4443C567.412 39.6147 566.314 37.0532 566.314 34.1259C566.314 31.1985 567.412 28.637 569.608 26.4415C571.803 24.6119 574.365 23.5142 577.658 23.5142C580.951 23.5142 583.879 24.6119 585.708 26.4415C587.904 28.2711 589.002 30.8326 589.002 34.1259C589.002 37.0532 587.904 39.6146 585.708 41.8101C583.513 43.6397 580.951 44.3716 577.658 44.3716ZM587.172 114.994H568.144V53.1535H587.172V114.994Z" fill="#0C9044"/>
<path d="M27.6722 158.174C32.8509 155.067 37.2528 151.183 41.0073 146.781C41.7841 145.875 42.6904 144.839 43.4672 143.803C42.0431 140.696 40.6189 137.719 39.1947 134.611C32.592 120.37 25.9893 106.129 19.3865 91.8874C16.2793 85.2847 13.3014 78.6819 10.1943 72.0791C-1.32825 98.1018 -1.19872 122.571 1.52007 132.799C4.1094 142.509 9.93535 153.255 17.8328 161.929C19.1275 161.67 19.7749 161.54 20.6812 161.281C23.141 160.505 25.8597 159.21 27.6722 158.174Z" fill="#0C9044"/>
<path d="M66.3828 12.5239C60.2979 15.7606 54.9898 19.2562 50.329 22.6223C34.2751 34.4037 23.141 47.9977 15.373 61.5917V61.7211C16.9266 64.9578 18.3508 68.3239 19.9044 71.5606C26.5072 85.8018 33.11 100.043 39.7128 114.284C42.82 121.017 45.9271 127.749 49.0343 134.481C49.1638 134.093 49.2933 133.834 49.4228 133.446C51.3648 128.655 52.2711 124.771 53.1773 119.593C53.9541 114.414 54.472 109.235 54.9899 103.927C56.0256 92.6636 57.3202 81.2705 61.0747 70.5248C63.5346 63.5337 67.0302 56.9309 71.432 51.1049C71.0436 47.8682 70.5258 44.5021 70.1374 41.2655C68.9722 31.685 67.6775 22.1044 66.3828 12.5239Z" fill="#0C9044"/>
<path d="M190.152 29.3538C143.285 -7.02625 103.409 -3.78957 75.1857 8.2508C75.8331 12.9116 76.4804 17.5723 76.9983 22.3626C77.9046 28.9654 78.6814 35.5682 79.5876 42.171C86.4493 35.9566 94.7351 31.2958 104.057 29.0948C112.86 27.0234 122.959 26.8939 131.633 29.7422C133.963 30.519 134.999 33.6262 134.093 35.8271C133.057 38.287 130.468 39.0638 128.008 38.287C127.878 38.287 127.749 38.1575 127.62 38.1575C127.49 38.1575 127.231 38.0281 127.102 38.0281C125.289 37.6397 123.347 37.3807 121.405 37.1218C120.111 36.9923 118.816 36.8628 117.521 36.8628C117.133 36.8628 116.744 36.8628 116.486 36.8628C117.91 36.8628 116.615 36.8628 116.227 36.8628C115.45 36.8628 114.673 36.8629 113.896 36.9923C112.343 37.1218 110.659 37.2512 109.106 37.5102C108.2 37.6396 107.293 37.7691 106.387 38.0281C105.999 38.1575 105.481 38.287 105.092 38.287H104.963C104.963 38.287 104.833 38.287 104.704 38.4164C102.891 38.9343 100.95 39.5816 99.137 40.3584C98.1013 40.7468 97.195 41.2647 96.1592 41.6531C95.7708 41.912 95.3824 42.0415 94.8646 42.3004C94.6056 42.4299 94.4762 42.5593 94.2172 42.6888C92.2752 43.854 90.4628 45.0192 88.7797 46.3139C87.744 47.0906 86.8376 47.8675 85.8019 48.7737C85.2841 49.1621 84.8957 49.5505 84.3778 50.0684C84.1189 50.3273 83.9894 50.4568 83.7305 50.7157C79.976 54.7292 76.4804 59.39 73.8911 64.0508C70.6544 70.1357 68.4534 76.3501 67.0293 82.8234C69.3597 82.8234 71.5607 82.8234 73.8911 82.8234C86.9672 82.6939 100.043 82.5645 113.119 82.435C113.378 81.7877 113.767 81.0109 114.155 80.3636C134.999 35.9566 180.054 52.7872 181.219 53.1756C185.491 54.5998 190.411 53.305 193.259 49.5505C197.014 44.7603 199.862 36.8628 190.152 29.3538Z" fill="#0C9044"/>
<path d="M93.1865 91.7553C83.9944 91.8848 74.8022 91.8848 65.6101 92.0143C65.3511 93.5678 65.2216 95.1214 65.0922 96.675C63.927 107.162 63.6681 117.907 61.0788 128.135C59.6546 133.573 57.7126 138.752 54.8643 143.671C51.6276 149.238 47.3554 154.029 42.6946 158.43C38.0338 162.832 32.0782 166.846 25.7344 169.306C32.7256 174.614 40.7525 178.109 49.5562 178.239C66.2574 178.627 79.0746 166.457 83.4765 161.667C103.673 139.917 97.5883 123.216 109.499 91.7553C104.062 91.6258 98.6241 91.6258 93.1865 91.7553Z" fill="#0C9044"/>
<path d="M187.566 79.7145C182.388 82.8217 177.986 86.7057 174.231 91.1075C173.455 92.0138 172.548 93.0495 171.771 94.0852C173.196 97.1924 174.62 100.17 176.044 103.277C182.647 117.519 189.249 131.76 195.852 146.001C198.959 152.604 201.937 159.207 205.044 165.81C216.567 139.787 216.437 115.318 213.719 105.09C211.129 95.3799 205.303 84.6342 197.406 75.96C196.111 76.2189 195.464 76.3484 194.558 76.6073C192.098 77.3841 189.379 78.6788 187.566 79.7145Z" fill="#0C9044"/>
<path d="M148.856 225.493C154.941 222.257 160.249 218.761 164.91 215.395C180.963 203.614 192.097 190.02 199.865 176.426V176.296C198.312 173.06 196.888 169.693 195.334 166.457C188.731 152.216 182.129 137.974 175.526 123.733C172.419 117.001 169.311 110.268 166.204 103.536C166.075 103.925 165.945 104.183 165.816 104.572C163.874 109.362 162.968 113.246 162.061 118.425C161.285 123.603 160.767 128.782 160.249 134.09C159.213 145.354 157.918 156.747 154.164 167.493C151.704 174.484 148.208 181.087 143.807 186.912C144.195 190.149 144.713 193.515 145.101 196.752C146.267 206.203 147.561 215.913 148.856 225.493Z" fill="#0C9044"/>
<path d="M25.0876 208.533C71.9544 244.913 111.83 241.676 140.054 229.636C139.406 224.975 138.759 220.314 138.241 215.524C137.335 208.921 136.558 202.318 135.652 195.715C128.79 201.93 120.504 206.591 111.183 208.792C102.379 210.863 92.2807 210.992 83.6064 208.144C81.2761 207.367 80.2403 204.26 81.1466 202.059C82.1823 199.599 84.7715 198.823 87.2314 199.599C87.3609 199.599 87.4904 199.729 87.6199 199.729C87.7493 199.729 88.0083 199.858 88.1378 199.858C89.9503 200.247 91.8923 200.506 93.8343 200.765C95.129 200.894 96.4236 201.024 97.7183 201.024C98.1067 201.024 98.495 201.024 98.7539 201.024C97.3298 201.024 98.6246 201.024 99.013 201.024C99.7898 201.024 100.566 201.024 101.343 200.894C102.897 200.765 104.58 200.635 106.134 200.376C107.04 200.247 107.946 200.117 108.852 199.858C109.241 199.729 109.759 199.599 110.147 199.599H110.276C110.276 199.599 110.406 199.599 110.535 199.47C112.348 198.952 114.29 198.305 116.102 197.528C117.138 197.14 118.045 196.622 119.08 196.233C119.469 195.974 119.857 195.845 120.375 195.586C120.634 195.457 120.763 195.327 121.022 195.198C122.964 194.032 124.777 192.867 126.46 191.573C127.495 190.796 128.402 190.019 129.438 189.113C129.955 188.724 130.344 188.336 130.862 187.818C131.121 187.559 131.25 187.43 131.509 187.171C135.264 183.157 138.759 178.496 141.348 173.836C144.585 167.751 146.786 161.536 148.21 155.063C145.88 155.063 143.679 155.063 141.348 155.063C128.272 155.192 115.196 155.322 102.12 155.451C101.861 156.099 101.473 156.876 101.084 157.523C80.2403 201.93 35.186 185.099 34.0208 184.711C29.7484 183.287 24.8288 184.581 21.9805 188.336C18.226 193.126 15.3776 201.024 25.0876 208.533Z" fill="#0C9044"/>
<path d="M122.059 146.13C131.251 146 140.443 146 149.635 145.871C149.894 144.317 150.024 142.764 150.153 141.21C151.318 130.723 151.577 119.978 154.167 109.75C155.591 104.312 157.533 99.1335 160.381 94.2137C163.617 88.6467 167.89 83.8565 172.551 79.4546C177.211 75.0528 183.167 71.0393 189.511 68.5794C182.52 63.2713 174.493 59.7758 165.689 59.6463C148.988 59.2579 136.171 71.4277 131.769 76.218C111.572 97.9683 117.657 114.669 105.746 146.13C111.184 146.259 116.621 146.259 122.059 146.13Z" fill="#0C9044"/>
</svg>
