<svg width="216" height="238" viewBox="0 0 216 238" fill="none" xmlns="http://www.w3.org/2000/svg">
<path d="M27.6722 158.174C32.8509 155.067 37.2528 151.183 41.0073 146.781C41.7841 145.875 42.6904 144.839 43.4672 143.803C42.0431 140.696 40.6189 137.719 39.1947 134.611C32.592 120.37 25.9893 106.129 19.3865 91.8874C16.2793 85.2847 13.3014 78.6819 10.1943 72.0791C-1.32825 98.1018 -1.19872 122.571 1.52007 132.799C4.1094 142.509 9.93535 153.255 17.8328 161.929C19.1275 161.67 19.7749 161.54 20.6812 161.281C23.141 160.505 25.8597 159.21 27.6722 158.174Z" fill="#0C9044"/>
<path d="M66.3828 12.5239C60.2979 15.7606 54.9898 19.2562 50.329 22.6223C34.2751 34.4037 23.141 47.9977 15.373 61.5917V61.7211C16.9266 64.9578 18.3508 68.3239 19.9044 71.5606C26.5072 85.8018 33.11 100.043 39.7128 114.284C42.82 121.017 45.9271 127.749 49.0343 134.481C49.1638 134.093 49.2933 133.834 49.4228 133.446C51.3648 128.655 52.2711 124.771 53.1773 119.593C53.9541 114.414 54.472 109.235 54.9899 103.927C56.0256 92.6636 57.3202 81.2705 61.0747 70.5248C63.5346 63.5337 67.0302 56.9309 71.432 51.1049C71.0436 47.8682 70.5258 44.5021 70.1374 41.2655C68.9722 31.685 67.6775 22.1044 66.3828 12.5239Z" fill="#0C9044"/>
<path d="M190.152 29.3538C143.285 -7.02625 103.409 -3.78957 75.1857 8.2508C75.8331 12.9116 76.4804 17.5723 76.9983 22.3626C77.9046 28.9654 78.6814 35.5682 79.5876 42.171C86.4493 35.9566 94.7351 31.2958 104.057 29.0948C112.86 27.0234 122.959 26.8939 131.633 29.7422C133.963 30.519 134.999 33.6262 134.093 35.8271C133.057 38.287 130.468 39.0638 128.008 38.287C127.878 38.287 127.749 38.1575 127.62 38.1575C127.49 38.1575 127.231 38.0281 127.102 38.0281C125.289 37.6397 123.347 37.3807 121.405 37.1218C120.111 36.9923 118.816 36.8628 117.521 36.8628C117.133 36.8628 116.744 36.8628 116.486 36.8628C117.91 36.8628 116.615 36.8628 116.227 36.8628C115.45 36.8628 114.673 36.8629 113.896 36.9923C112.343 37.1218 110.659 37.2512 109.106 37.5102C108.2 37.6396 107.293 37.7691 106.387 38.0281C105.999 38.1575 105.481 38.287 105.092 38.287H104.963C104.963 38.287 104.833 38.287 104.704 38.4164C102.891 38.9343 100.95 39.5816 99.137 40.3584C98.1013 40.7468 97.195 41.2647 96.1592 41.6531C95.7708 41.912 95.3824 42.0415 94.8646 42.3004C94.6056 42.4299 94.4762 42.5593 94.2172 42.6888C92.2752 43.854 90.4628 45.0192 88.7797 46.3139C87.744 47.0906 86.8376 47.8675 85.8019 48.7737C85.2841 49.1621 84.8957 49.5505 84.3778 50.0684C84.1189 50.3273 83.9894 50.4568 83.7305 50.7157C79.976 54.7292 76.4804 59.39 73.8911 64.0508C70.6544 70.1357 68.4534 76.3501 67.0293 82.8234C69.3597 82.8234 71.5607 82.8234 73.8911 82.8234C86.9672 82.6939 100.043 82.5645 113.119 82.435C113.378 81.7877 113.767 81.0109 114.155 80.3636C134.999 35.9566 180.054 52.7872 181.219 53.1756C185.491 54.5998 190.411 53.305 193.259 49.5505C197.014 44.7603 199.862 36.8628 190.152 29.3538Z" fill="#0C9044"/>
<path d="M93.1865 91.7553C83.9944 91.8848 74.8022 91.8848 65.6101 92.0143C65.3511 93.5678 65.2216 95.1214 65.0922 96.675C63.927 107.162 63.6681 117.907 61.0788 128.135C59.6546 133.573 57.7126 138.752 54.8643 143.671C51.6276 149.238 47.3554 154.029 42.6946 158.43C38.0338 162.832 32.0782 166.846 25.7344 169.306C32.7256 174.614 40.7525 178.109 49.5562 178.239C66.2574 178.627 79.0746 166.457 83.4765 161.667C103.673 139.917 97.5883 123.216 109.499 91.7553C104.062 91.6258 98.6241 91.6258 93.1865 91.7553Z" fill="#0C9044"/>
<path d="M187.566 79.7145C182.388 82.8217 177.986 86.7057 174.231 91.1075C173.455 92.0138 172.548 93.0495 171.771 94.0852C173.196 97.1924 174.62 100.17 176.044 103.277C182.647 117.519 189.249 131.76 195.852 146.001C198.959 152.604 201.937 159.207 205.044 165.81C216.567 139.787 216.437 115.318 213.719 105.09C211.129 95.3799 205.303 84.6342 197.406 75.96C196.111 76.2189 195.464 76.3484 194.558 76.6073C192.098 77.3841 189.379 78.6788 187.566 79.7145Z" fill="#0C9044"/>
<path d="M148.856 225.493C154.941 222.257 160.249 218.761 164.91 215.395C180.963 203.614 192.097 190.02 199.865 176.426V176.296C198.312 173.06 196.888 169.693 195.334 166.457C188.731 152.216 182.129 137.974 175.526 123.733C172.419 117.001 169.311 110.268 166.204 103.536C166.075 103.925 165.945 104.183 165.816 104.572C163.874 109.362 162.968 113.246 162.061 118.425C161.285 123.603 160.767 128.782 160.249 134.09C159.213 145.354 157.918 156.747 154.164 167.493C151.704 174.484 148.208 181.087 143.807 186.912C144.195 190.149 144.713 193.515 145.101 196.752C146.267 206.203 147.561 215.913 148.856 225.493Z" fill="#0C9044"/>
<path d="M25.0876 208.533C71.9544 244.913 111.83 241.676 140.054 229.636C139.406 224.975 138.759 220.314 138.241 215.524C137.335 208.921 136.558 202.318 135.652 195.715C128.79 201.93 120.504 206.591 111.183 208.792C102.379 210.863 92.2807 210.992 83.6064 208.144C81.2761 207.367 80.2403 204.26 81.1466 202.059C82.1823 199.599 84.7715 198.823 87.2314 199.599C87.3609 199.599 87.4904 199.729 87.6199 199.729C87.7493 199.729 88.0083 199.858 88.1378 199.858C89.9503 200.247 91.8923 200.506 93.8343 200.765C95.129 200.894 96.4236 201.024 97.7183 201.024C98.1067 201.024 98.495 201.024 98.7539 201.024C97.3298 201.024 98.6246 201.024 99.013 201.024C99.7898 201.024 100.566 201.024 101.343 200.894C102.897 200.765 104.58 200.635 106.134 200.376C107.04 200.247 107.946 200.117 108.852 199.858C109.241 199.729 109.759 199.599 110.147 199.599H110.276C110.276 199.599 110.406 199.599 110.535 199.47C112.348 198.952 114.29 198.305 116.102 197.528C117.138 197.14 118.045 196.622 119.08 196.233C119.469 195.974 119.857 195.845 120.375 195.586C120.634 195.457 120.763 195.327 121.022 195.198C122.964 194.032 124.777 192.867 126.46 191.573C127.495 190.796 128.402 190.019 129.438 189.113C129.955 188.724 130.344 188.336 130.862 187.818C131.121 187.559 131.25 187.43 131.509 187.171C135.264 183.157 138.759 178.496 141.348 173.836C144.585 167.751 146.786 161.536 148.21 155.063C145.88 155.063 143.679 155.063 141.348 155.063C128.272 155.192 115.196 155.322 102.12 155.451C101.861 156.099 101.473 156.876 101.084 157.523C80.2403 201.93 35.186 185.099 34.0208 184.711C29.7484 183.287 24.8288 184.581 21.9805 188.336C18.226 193.126 15.3776 201.024 25.0876 208.533Z" fill="#0C9044"/>
<path d="M122.059 146.13C131.251 146 140.443 146 149.635 145.871C149.894 144.317 150.024 142.764 150.153 141.21C151.318 130.723 151.577 119.978 154.167 109.75C155.591 104.312 157.533 99.1335 160.381 94.2137C163.617 88.6467 167.89 83.8565 172.551 79.4546C177.211 75.0528 183.167 71.0393 189.511 68.5794C182.52 63.2713 174.493 59.7758 165.689 59.6463C148.988 59.2579 136.171 71.4277 131.769 76.218C111.572 97.9683 117.657 114.669 105.746 146.13C111.184 146.259 116.621 146.259 122.059 146.13Z" fill="#0C9044"/>
</svg>
